<svg width="205" height="194" viewBox="0 0 205 194" fill="none" xmlns="http://www.w3.org/2000/svg">
<path fill-rule="evenodd" clip-rule="evenodd" d="M76.3557 15.2305C76.8842 14.6635 77.5544 13.9819 78.3857 13.1363L78.3882 13.1338C78.6393 12.8784 78.9051 12.608 79.1861 12.3214L83.3991 8.02426L80.9435 8.32797C79.5929 8.49526 75.9764 9.24715 72.9069 9.9995L70.5659 10.5733C67.4744 8.56633 64.0601 7.01512 60.4171 6.01517C65.5872 4.09205 77.4069 1.12983 84.5153 0.409117C127.942 -3.99313 174.965 27.7221 183.394 67.0972L183.707 68.5589L181.026 66.9849C179.551 66.1189 177.425 65.0155 176.301 64.5328C175.176 64.0498 174.257 63.3641 174.257 63.0089C174.257 60.0595 163.846 42.8021 158.656 37.1497L156.16 34.4306L153.042 36.3535C149.136 38.7617 139.432 43.4341 134.832 45.1208C132.263 46.0633 131.404 46.575 131.558 47.0715C131.674 47.4414 132.787 50.495 134.031 53.8569L134.103 54.0516C136.072 59.3731 136.796 61.3296 136.125 62.4481C135.734 63.0983 134.873 63.4655 133.51 64.0461L133.126 64.21C131.557 64.8805 130.765 65.2184 130.254 64.9731C129.735 64.7237 129.504 63.8718 129.039 62.1539L128.953 61.8339C128.155 58.8929 125.021 50.4906 124.305 49.3741C123.984 48.8732 122.987 48.968 118.569 49.918C112.176 51.2939 103.787 52.4408 100.119 52.4408H97.463V90.0133H101.965C104.441 90.0133 106.4 90.1703 106.318 90.3621C106.236 90.554 105.59 92.2649 104.882 94.1641L103.594 97.6172H97.4532L97.6862 134.966L102.136 135.256C104.583 135.416 106.65 135.739 106.728 135.975C106.806 136.21 107.85 137.992 109.047 139.934C109.222 140.218 109.385 140.481 109.537 140.725C110.575 142.398 111.051 143.165 110.849 143.45C110.677 143.692 110.019 143.587 108.803 143.395L108.561 143.356C108.422 143.334 108.276 143.312 108.123 143.288C106.558 143.049 103.519 142.715 101.37 142.547L97.463 142.24L97.5027 175.67L102.556 170.432C107.618 165.185 112.87 158.684 115.943 153.864C116.03 153.727 116.113 153.595 116.193 153.471C117.049 152.122 117.442 151.502 117.89 151.46C118.27 151.425 118.69 151.806 119.466 152.513C119.55 152.589 119.639 152.67 119.733 152.755C120.622 153.559 121.836 154.558 122.431 154.976L123.513 155.734L121.05 159.44C117.553 164.701 113.562 169.594 108.45 174.887C108.257 175.087 108.07 175.28 107.892 175.464C105.803 177.623 104.735 178.727 104.955 179.135C105.186 179.563 106.828 179.228 110.191 178.543C110.466 178.487 110.752 178.429 111.051 178.368C120.518 176.447 132.178 171.745 139.935 166.717L143.162 164.626L146.45 165.116C148.257 165.385 150.583 165.614 151.616 165.624L153.496 165.643L151.71 167.231C137.34 180.012 112.503 188.17 90.3444 187.387C18.3662 184.843 -23.686 104.856 14.248 44.0867V47.1398C14.248 50.1661 14.8859 53.4301 15.8101 56.6268C11.2059 66.5412 7.7217 79.5976 7.7217 87.809V90.0133H31.4001C32.9595 92.7518 34.4679 95.3223 35.8401 97.6172H7.7217V99.5298C7.7217 115.198 16.8137 137.361 28.5872 150.395L30.9808 153.046L33.8717 151.273C38.1011 148.68 45.6988 144.969 50.8065 143.003C53.2621 142.057 55.4176 141.165 55.5962 141.02C55.7748 140.875 55.1239 138.721 54.1492 136.234C51.4042 129.228 48.3089 117.31 47.3291 110.551C49.7836 111.277 52.4339 111.202 54.8481 110.327C55.4345 113.672 56.2741 117.906 56.883 120.393C58.4077 126.616 62.6528 138.768 63.3028 138.768C63.3622 138.768 65.5977 138.28 68.2707 137.683C74.5549 136.281 79.0745 135.623 84.9247 135.259L89.6497 134.966L89.8828 97.6172H65.656C67.0282 95.3223 68.5366 92.7518 70.096 90.0133H89.8729V52.5781L86.7071 52.4076C87.047 50.6127 87.248 48.8388 87.248 47.1398V45.1471L89.8729 45.3123L89.8314 11.9609L83.9808 17.9993C82.9007 19.1141 81.9136 20.1008 81.0641 20.9193C79.6874 18.8662 78.1085 16.9603 76.3557 15.2305ZM114.333 9.98921C126.255 12.906 136.938 18.1263 146.91 25.9083C148.936 27.4895 150.593 28.936 150.593 29.123C150.593 29.7022 139.459 35.2952 133.641 37.639L128.118 39.8634L125.612 35.5291C120.39 26.4996 115.392 19.8506 108.441 12.6864L103.937 8.04394L106.392 8.34586C107.743 8.5118 111.316 9.25118 114.333 9.98921ZM111.243 27.108C114.122 30.9386 119.925 39.9327 120.521 41.4902C120.867 42.3937 103.747 45.2801 98.0211 45.2836C97.5844 45.2841 97.4666 41.6628 97.48 28.6225L97.4969 11.9609L102.726 17.3476C105.602 20.3105 109.435 24.7024 111.243 27.108ZM89.839 175.67L84.5617 170.241C77.4418 162.917 65.7035 146.73 66.7509 145.681C67.5189 144.912 82.6624 142.575 87.9754 142.407L89.8729 142.346L89.839 175.67ZM60.9807 150.831C65.4722 159.094 71.9412 167.794 78.8683 174.887L79.4171 175.448C81.5429 177.621 82.6291 178.731 82.4094 179.141C82.1798 179.568 80.5244 179.231 77.1391 178.542L77.1338 178.541C76.8673 178.487 76.59 178.43 76.3019 178.372C60.9745 175.262 33.5868 160.752 37.4109 157.767C39.6482 156.02 57.4982 147.741 59.0662 147.722C59.189 147.721 60.0503 149.12 60.9807 150.831Z" fill="#F3F3F3"/>
<path fill-rule="evenodd" clip-rule="evenodd" d="M146.179 71.0235C112.098 78.4306 100.233 120.32 125.562 143.813C139.074 156.346 156.614 157.859 170.872 151.728L193.035 190.116C194.692 192.985 198.362 193.969 201.231 192.312C204.101 190.655 205.084 186.985 203.428 184.116L181.137 145.507C190.69 137.711 197.007 125.677 196.465 111.076C195.502 85.1373 171.007 65.6274 146.179 71.0235ZM158.767 81.5657C187.581 86.0364 195.657 123.221 171.29 139.221C156.861 148.695 136.073 143.845 127.408 128.982C114.046 106.061 132.901 77.5522 158.767 81.5657Z" fill="#F3F3F3"/>
<path fill-rule="evenodd" clip-rule="evenodd" d="M24.248 41.2934C24.248 26.6166 36.1125 15.2188 50.748 15.2188C65.3836 15.2188 77.248 26.6166 77.248 41.2934C77.248 52.6338 72.2141 60.6286 66.4571 69.7717C61.3278 77.9179 55.6245 86.9758 52.396 100.124C52.0503 101.532 49.4641 101.527 49.1001 100.124C45.727 87.1227 40.1025 78.1208 35.0565 70.0451C29.2721 60.7873 24.248 52.7467 24.248 41.2934ZM50.748 55.7188C58.7562 55.7188 65.248 49.2269 65.248 41.2188C65.248 33.2106 58.7562 26.7188 50.748 26.7188C42.7399 26.7188 36.248 33.2106 36.248 41.2188C36.248 49.2269 42.7399 55.7188 50.748 55.7188Z" fill="#F3F3F3"/>
</svg>
